# AST/ASF file generated using VICON BodyLanguage
# -----------------------------------------------
:version 1.10
:name VICON
:units
  mass 1.0
  length 0.45
  angle deg
:documentation
   .ast/.asf automatically generated from VICON data using
   VICON BodyBuilder and BodyLanguage model FoxedUp or BRILLIANT.MOD
:root
   order TX TY TZ RX RY RZ
   axis XYZ
   position 0 0 0  
   orientation 0 0 0 
:bonedata
  begin
     id 1 
     name lhipjoint
     direction 0.547975 -0.797114 0.253638 
     length 2.36201 
     axis 0 0 0  XYZ
  end
  begin
     id 2 
     name lfemur
     direction 0.34202 -0.939693 0  
     length 7.69075  
     axis 0 0 20  XYZ
    dof rx ry rz
    limits (-160.0 20.0)
           (-70.0 70.0)
           (-60.0 70.0)
  end
  begin
     id 3 
     name ltibia
     direction 0.34202 -0.939693 0   
     length 7.91399   
     axis 0 0 20   XYZ
    dof rx
    limits (-10.0 170.0)
  end
  begin
     id 4 
     name lfoot
     direction 0.0705293 -0.193778 0.978507   
     length 2.13618   
     axis -90 7.62852e-016 20   XYZ
    dof rx rz
    limits (-45.0 90.0)
           (-70.0 20.0)
  end
  begin
     id 5 
     name ltoes
     direction 1.53592e-011 -4.21925e-011 1   
     length 1.07518   
     axis -90 7.62852e-016 20   XYZ
    dof rx
    limits (-90.0 20.0)
  end
  begin
     id 6 
     name rhipjoint
     direction -0.57 -0.782963 0.249136   
     length 2.4047  
     axis 0 0 0  XYZ 
  end
  begin
     id 7 
     name rfemur
     direction -0.34202 -0.939693 0   
     length 7.51486   
     axis 0 0 -20   XYZ
    dof rx ry rz
    limits (-160.0 20.0)
           (-70.0 70.0)
           (-70.0 60.0)
  end
  begin
     id 8 
     name rtibia
     direction -0.34202 -0.939693 0   
     length 8.08317   
     axis 0 0 -20   XYZ
    dof rx
    limits (-10.0 170.0)
 end
 begin
     id 9 
     name rfoot
     direction -0.104954 -0.281256 0.953876   
     length 2.30343  
     axis -90 -7.62852e-016 -20   XYZ
    dof rx rz
    limits (-45.0 90.0)
           (-20.0 70.0)
  end
  begin
     id 10 
     name rtoes
     direction -1.53556e-011 -4.21922e-011 1   
     length 1.14803   
     axis -90 -7.62852e-016 -20   XYZ
    dof rx
    limits (-90.0 20.0)
  end
  begin
     id 11 
     name lowerback
     direction -0.0152855 0.99353 -0.11254   
     length 2.05311   
     axis 0 0 0   XYZ
    dof rx ry rz
    limits (-20.0 45.0)
           (-30.0 30.0)
           (-30.0 30.0)
  end
  begin
     id 12 
     name upperback
     direction -0.00157509 0.999443 -0.033332   
     length 2.06353   
     axis 0 0 0   XYZ
    dof rx ry rz
    limits (-20.0 45.0)
           (-30.0 30.0)
           (-30.0 30.0)
  end
  begin
     id 13 
     name thorax
     direction 0.00577788 0.999804 0.0189484   
     length 2.08472   
     axis 0 0 0   XYZ
    dof rx ry rz
    limits (-20.0 45.0)
           (-30.0 30.0)
           (-30.0 30.0)
  end
  begin
     id 14 
     name lowerneck
     direction -1.09301e-005 0.994719 0.10264   
     length 1.76249   
     axis 0 0 0   XYZ
    dof rx ry rz
    limits (-20.0 45.0)
           (-30.0 30.0)
           (-30.0 30.0)
  end
  begin
     id 15 
     name upperneck
     direction 0.0495018 0.988526 -0.142706   
     length 1.77897   
     axis 0 0 0   XYZ
    dof rx ry rz
    limits (-20.0 45.0)
           (-30.0 30.0)
           (-30.0 30.0)
  end
  begin
     id 16
     name head
     direction 0.0142736 0.998114 -0.0597101  
     length 1.78934  
     axis 0 0 0   XYZ
    dof rx ry rz
    limits (-20.0 45.0)
           (-30.0 30.0)
           (-30.0 30.0)
  end
  begin
     id 17 
     name lclavicle
     direction 0.918111 0.396107 -0.0130883  
     length 3.37276  
     axis 0 0 0   XYZ
    dof ry rz
    limits (-20.0 10.0)
           (0.0 20.0)
  end
  begin
     id 18 
     name lhumerus
     direction 1 -4.48975e-011 -3.26108e-027   
     length 5.34298   
     axis 180 -30 -90   XYZ
    dof rx ry rz
    limits (-60.0 90.0)
           (-90.0 90.0)
           (-90.0 90.0)
  end
  begin
     id 19
     name lradius
     direction 1 -4.48964e-011 -8.84413e-028   
     length 3.67262   
     axis 180 -30 -90   XYZ
    dof rx
    limits (-10.0 170.0)
  end
  begin
     id 20
     name lwrist
     direction 1 -4.48991e-011 -1.24264e-027   
     length 1.83631   
     axis -2.17013e-015 90 90   XYZ
    dof ry
    limits (-180.0 0.0)
 end
  begin
     id 21 
     name lhand
     direction 1 -4.48855e-011 -2.48528e-027   
     length 0.599298   
     axis 1.58582e-015 90 90   XYZ
    dof rx rz
    limits (-90.0 90.0)
           (-45.0 45.0)
  end
  begin
     id 22 
     name lfingers
     direction 1 -4.48811e-011 -4.97056e-027   
     length 0.48317   
     axis 3.17164e-015 90 90   XYZ
    dof rx
    limits (0.0 90.0)
  end
  begin
     id 23
     name lthumb
     direction 0.707107 -6.34882e-011 0.707107   
     length 0.693738   
     axis -90 45 2.85299e-015   XYZ
    dof rx rz
    limits (-45.0 45.0)
           (-45.0 45.0)
  end
  begin
     id 24 
     name rclavicle
     direction -0.920511 0.384752 -0.0680135   
     length 3.43787  
     axis 0 0 0   XYZ 
    dof ry rz
    limits (-10.0 20.0)
           (-20.0 0.0)
  end
  begin
     id 25 
     name rhumerus
     direction -0.999976 -0.00330524 0.00603274  
     length 5.5498   
     axis 180 30 90   XYZ
    dof rx ry rz
    limits (-90.0 60.0)
           (-90.0 90.0)
           (-90.0 90.0)
  end
  begin
     id 26 
     name rradius
     direction -1 -4.48967e-011 8.62438e-027   
     length 3.69401   
     axis 180 30 90   XYZ
    dof rx
    limits (-10.0 170.0)
  end
  begin
     id 27 
     name rwrist
     direction -1 -4.4897e-011 9.54866e-027   
     length 1.84701   
     axis -7.69462e-015 -90 -90   XYZ
    dof ry
    limits (-180.0 0.0)
  end
  begin
     id 28
     name rhand
     direction -1 -4.48982e-011 1.90973e-026   
     length 0.638113   
     axis -1.21857e-014 -90 -90   XYZ
    dof rx rz
    limits (-90.0 90.0)
           (-45.0 45.0)
  end
  begin
     id 29
     name rfingers
     direction -1 -4.48936e-011 3.81946e-026   
     length 0.514463   
     axis -2.43714e-014 -90 -90   XYZ
    dof rx
    limits (0.0 90.0)
  end
  begin
     id 30
     name rthumb
     direction -0.707107 -6.34942e-011 0.707107   
     length 0.738669   
     axis -90 -45 -2.85299e-015   XYZ
    dof rx rz
    limits (-45.0 45.0)
           (-45.0 45.0)
  end
:hierarchy
  begin
    root lhipjoint rhipjoint lowerback
    lhipjoint lfemur
    lfemur ltibia
    ltibia lfoot
    lfoot ltoes
    rhipjoint rfemur
    rfemur rtibia
    rtibia rfoot
    rfoot rtoes
    lowerback upperback
    upperback thorax
    thorax lowerneck lclavicle rclavicle
    lowerneck upperneck
    upperneck head
    lclavicle lhumerus
    lhumerus lradius
    lradius lwrist
    lwrist lhand lthumb
    lhand lfingers
    rclavicle rhumerus
    rhumerus rradius
    rradius rwrist
    rwrist rhand rthumb
    rhand rfingers
  end

#!OML:ASF F:\twosubjects\two\Thursday\Session 1\Rory.ASF
:FULLY-SPECIFIED
:DEGREES
66
root 8.14927 18.3118 -12.757 2.49939 -17.3126 0.423985
lowerback -2.14664 3.6802 -1.70216
upperback 0.266225 5.01278 -4.43152
thorax 1.72839 2.50827 -3.41929
lowerneck -9.0273 -1.85312 -3.9986
upperneck 29.6745 -1.45157 -1.38526
head 11.099 -1.30094 0.00661756
rclavicle 3.1408e-014 -6.36111e-015
rhumerus 9.94267 3.70266 -74.2469
rradius 45.8423
rwrist -2.38476
rhand -21.2557 24.1787
rfingers 7.12502
rthumb 5.12743 -5.73928
lclavicle 3.1408e-014 -6.36111e-015
lhumerus -36.3484 16.594 71.7311
lradius 24.4557
lwrist -27.4526
lhand -12.6616 28.2366
lfingers 7.12502
lthumb 13.4194 57.7843
rfemur 5.3684 3.2467 22.3614
rtibia 28.5947
rfoot -3.02856 3.66124
rtoes -15.6226
lfemur -19.9578 3.36326 -21.1194
ltibia 18.2348
lfoot -1.70237 7.99183
ltoes 12.3678
67
root 8.1428 18.3242 -12.6513 2.4595 -17.1795 0.241323
lowerback -1.98358 3.79536 -1.4196
upperback 0.241342 5.15326 -4.49767
thorax 1.64952 2.5824 -3.65115
lowerneck -8.78483 -1.95275 -3.97071
upperneck 29.8287 -1.57826 -1.48509
head 11.1107 -1.36864 -0.0485999
rclavicle -2.08724e-014 6.36111e-015
rhumerus 10.519 3.52652 -74.0052
rradius 46.3739
rwrist -2.70386
rhand -20.8917 24.4116
rfingers 7.12502
rthumb 5.47894 -5.4976
lclavicle -2.08724e-014 6.36111e-015
lhumerus -36.1014 16.3469 71.6539
lradius 23.9306
lwrist -26.9124
lhand -9.04226 30.9109
lfingers 7.12502
lthumb 16.9058 60.1951
rfemur 4.37185 2.71264 22.1653
rtibia 30.6206
rfoot -1.32105 4.50635
rtoes -9.97618
lfemur -19.5194 3.39959 -21.0283
ltibia 18.271
lfoot -1.87077 7.85781
ltoes 12.5742
68
root 8.13418 18.354 -12.5456 2.41883 -17.2086 0.337662
lowerback -2.02295 3.96071 -1.41759
upperback 0.269113 5.37944 -4.64585
thorax 1.72757 2.69692 -3.7923
lowerneck -8.66224 -2.05593 -3.84599
upperneck 29.9914 -1.68711 -1.70576
head 11.147 -1.43168 -0.163822
rclavicle -1.33981e-013 5.56597e-014
rhumerus 11.3902 3.47995 -73.6106
rradius 46.6607
rwrist -2.96641
rhand -20.6275 24.2628
rfingers 7.12502
rthumb 5.73396 -5.63958
lclavicle -1.33981e-013 5.56597e-014
lhumerus -35.9571 16.1458 71.5518
lradius 23.9219
lwrist -26.9492
lhand -13.8486 29.0651
lfingers 7.12502
lthumb 12.2751 58.6849
rfemur 3.22043 2.35301 21.6745
rtibia 32.638
rfoot 0.382562 5.35757
rtoes -9.77047
lfemur -19.1168 3.47039 -21.2105
ltibia 18.2664
lfoot -2.18841 7.86921
ltoes 12.9634
69
root 8.12844 18.3677 -12.4436 2.28857 -17.2065 0.651127
lowerback -2.00718 4.19067 -1.65132
upperback 0.551752 5.71071 -4.93735
thorax 2.03738 2.86381 -3.9397
lowerneck -9.551 -2.32845 -3.63626
upperneck 30.4111 -2.05445 -1.74205
head 11.4901 -1.5839 -0.274999
rclavicle 3.23025e-014 -8.26944e-014
rhumerus 12.7765 3.24705 -73.0611
rradius 46.9195
rwrist -3.57333
rhand -20.7116 23.6573
rfingers 7.12502
rthumb 5.6528 -6.2473
lclavicle 3.23025e-014 -8.26944e-014
lhumerus -35.3295 16.1194 71.545
lradius 24.2264
lwrist -27.2335
lhand -10.3056 29.9993
lfingers 7.12502
lthumb 15.6893 59.3832
rfemur 2.1391 2.18684 21.031
rtibia 34.5794
rfoot 1.93511 6.15253
rtoes -11.089
lfemur -18.6614 3.38983 -21.5984
ltibia 18.1617
lfoot -2.52429 7.91531
ltoes 13.0417
70
root 8.1177 18.3711 -12.3446 1.96922 -17.1385 0.898971
lowerback -1.69546 4.25097 -1.89556
upperback 0.542535 5.78153 -5.01844
thorax 1.8418 2.89659 -3.91081
lowerneck -9.36031 -2.41282 -3.9333
upperneck 30.6339 -2.14986 -1.62737
head 11.5477 -1.64963 -0.193753
rclavicle -4.67144e-015 -1.27222e-014
rhumerus 13.6412 3.63596 -72.5878
rradius 47.1691
rwrist -4.1444
rhand -20.5784 22.9067
rfingers 7.12502
rthumb 5.78144 -6.99438
lclavicle -4.67144e-015 -1.27222e-014
lhumerus -35.6671 16.3468 71.3695
lradius 24.5207
lwrist -26.9171
lhand -11.146 29.6158
lfingers 7.12502
lthumb 14.8799 59.0614
rfemur 1.36056 2.03824 20.4865
rtibia 36.4739
rfoot 3.57145 6.88544
rtoes -10.3913
lfemur -17.944 3.32113 -21.8951
ltibia 17.9847
lfoot -2.70539 7.8942
ltoes 12.9386
71
root 8.10203 18.3722 -12.2537 1.69893 -17.0837 1.11273
lowerback -1.42131 4.35642 -2.14614
upperback 0.529908 5.91262 -5.114
thorax 1.66769 2.95982 -3.88951
lowerneck -8.98914 -2.50639 -3.83236
upperneck 30.7042 -2.27011 -1.79975
head 11.4974 -1.71335 -0.285146
rclavicle 9.34288e-015 -7.63333e-014
rhumerus 14.5202 3.63085 -72.2545
rradius 47.2659
rwrist -4.16886
rhand -20.6035 22.5669
rfingers 7.12502
rthumb 5.75713 -7.33487
lclavicle 9.34288e-015 -7.63333e-014
lhumerus -35.7364 15.6224 71.507
lradius 24.6859
lwrist -26.0824
lhand -10.8543 29.9273
lfingers 7.12502
lthumb 15.1608 59.3519
rfemur 0.483078 1.96077 19.9951
rtibia 38.3811
rfoot 4.94383 7.51812
rtoes -6.13708
lfemur -17.3583 3.43582 -22.1636
ltibia 17.9089
lfoot -2.95691 7.73776
ltoes 12.3752
72
root 8.08961 18.3742 -12.1643 1.59121 -17.0132 1.49774
lowerback -1.40819 4.30452 -2.60402
upperback 0.591982 5.85347 -5.15882
thorax 1.68021 2.92448 -3.68379
lowerneck -8.91721 -2.49602 -3.94495
upperneck 30.7706 -2.16756 -2.01577
head 11.509 -1.7067 -0.332731
rclavicle 1.50082e-014 -1.90833e-014
rhumerus 15.7395 3.92167 -71.9884
rradius 47.3863
rwrist -3.99974
rhand -21.5144 23.421
rfingers 7.12502
rthumb 4.87766 -6.50286
lclavicle 1.50082e-014 -1.90833e-014
lhumerus -35.5666 15.2211 71.7151
lradius 24.6185
lwrist -25.5978
lhand -11.7988 30.1362
lfingers 7.12502
lthumb 14.2509 59.6273
rfemur -0.643478 1.83266 19.3019
rtibia 40.2392
rfoot 5.65513 8.16841
rtoes -7.94878
lfemur -17.0511 3.70037 -22.6642
ltibia 17.8807
lfoot -3.28284 7.46909
ltoes 11.7226
73
root 8.0767 18.3754 -12.0731 1.4109 -16.9045 1.88252
lowerback -1.32502 4.04964 -3.10742
upperback 0.608704 5.51438 -5.04662
thorax 1.57589 2.74762 -3.30686
lowerneck -8.7924 -2.23649 -4.34958
upperneck 30.9461 -1.6214 -2.31763
head 11.5553 -1.54716 -0.308275
rclavicle -3.57812e-015 -2.22639e-014
rhumerus 16.9443 4.94908 -71.722
rradius 47.6098
rwrist -4.14096
rhand -22.3212 24.1809
rfingers 7.12502
rthumb 4.09858 -5.75942
lclavicle -3.57812e-015 -2.22639e-014
lhumerus -35.9015 15.8538 71.6647
lradius 24.6819
lwrist -25.4283
lhand -12.9983 29.917
lfingers 7.12502
lthumb 13.0948 59.4859
rfemur -1.64146 1.61038 18.6045
rtibia 42.0659
rfoot 5.70261 8.62998
rtoes -12.2438
lfemur -16.6524 3.91674 -23.148
ltibia 17.8298
lfoot -3.57768 7.20807
ltoes 11.6366
74
root 8.06061 18.3787 -11.9944 1.31461 -16.5444 2.0933
lowerback -1.02283 3.88462 -3.36231
upperback 0.554652 5.27415 -5.10227
thorax 1.3243 2.62636 -3.25523
lowerneck -8.74042 -2.11205 -4.27445
upperneck 31.2117 -1.37868 -2.5655
head 11.6457 -1.4647 -0.386574
rclavicle 4.1546e-014 -1.90833e-014
rhumerus 17.8555 5.46926 -71.5049
rradius 47.9992
rwrist -4.44984
rhand -22.628 23.9043
rfingers 7.12502
rthumb 3.80236 -6.04151
lclavicle 4.1546e-014 -1.90833e-014
lhumerus -36.1392 15.7395 71.5994
lradius 24.9725
lwrist -25.0282
lhand -13.2718 29.5174
lfingers 7.12502
lthumb 12.8312 59.103
rfemur -2.6577 1.28814 18.1807
rtibia 43.8276
rfoot 5.24993 8.59814
rtoes -15.3553
lfemur -16.308 4.18612 -23.4571
ltibia 17.7084
lfoot -3.44542 6.91345
ltoes 11.7819
75
root 8.04502 18.3787 -11.9257 1.28106 -15.9832 2.40733
lowerback -0.65135 3.87981 -3.60825
upperback 0.530912 5.24463 -5.3611
thorax 1.09363 2.61226 -3.41662
lowerneck -8.62832 -2.25887 -4.07979
upperneck 31.2443 -1.65229 -2.50379
head 11.6337 -1.55674 -0.429789
rclavicle 4.32357e-014 -1.74931e-014
rhumerus 18.743 5.23163 -71.2104
rradius 48.3253
rwrist -4.87154
rhand -23.0354 23.7359
rfingers 7.12502
rthumb 3.40889 -6.21658
lclavicle 4.32357e-014 -1.74931e-014
lhumerus -35.9046 14.6505 71.77
lradius 25.2631
lwrist -24.4767
lhand -13.4174 29.1702
lfingers 7.12502
lthumb 12.6908 58.7646
rfemur -3.73325 0.794034 17.697
rtibia 45.4711
rfoot 4.28767 8.63054
rtoes -17.8333
lfemur -16.091 4.37006 -23.8913
ltibia 17.5901
lfoot -3.21994 6.49556
ltoes 12.2654
